<svg width="42" height="44" viewBox="0 0 42 44" fill="none" xmlns="http://www.w3.org/2000/svg">
<path fill-rule="evenodd" clip-rule="evenodd" d="M16.5 22V2.75H19.25V19.5718L24.0433 16.6925C24.2568 16.5645 24.5011 16.497 24.75 16.497C24.9989 16.497 25.2432 16.5645 25.4568 16.6925L30.25 19.5718V2.75H33V22C33.0001 22.2433 32.9356 22.4822 32.8131 22.6924C32.6906 22.9026 32.5146 23.0766 32.3029 23.1965C32.0913 23.3165 31.8516 23.3781 31.6083 23.3752C31.3651 23.3722 31.1269 23.3048 30.9183 23.1798L24.75 19.4783L18.5818 23.1825C18.3729 23.3077 18.1345 23.3751 17.891 23.3779C17.6475 23.3808 17.4076 23.3189 17.1959 23.1986C16.9841 23.0783 16.8081 22.904 16.6859 22.6934C16.5636 22.4828 16.4995 22.2435 16.5 22Z" fill="#FFC700"/>
<path d="M8.25 0H35.75C37.2087 0 38.6076 0.579463 39.6391 1.61091C40.6705 2.64236 41.25 4.04131 41.25 5.5V38.5C41.25 39.9587 40.6705 41.3576 39.6391 42.3891C38.6076 43.4205 37.2087 44 35.75 44H8.25C6.79131 44 5.39236 43.4205 4.36091 42.3891C3.32946 41.3576 2.75 39.9587 2.75 38.5V35.75H5.5V38.5C5.5 39.2293 5.78973 39.9288 6.30546 40.4445C6.82118 40.9603 7.52065 41.25 8.25 41.25H35.75C36.4793 41.25 37.1788 40.9603 37.6945 40.4445C38.2103 39.9288 38.5 39.2293 38.5 38.5V5.5C38.5 4.77065 38.2103 4.07118 37.6945 3.55546C37.1788 3.03973 36.4793 2.75 35.75 2.75H8.25C7.52065 2.75 6.82118 3.03973 6.30546 3.55546C5.78973 4.07118 5.5 4.77065 5.5 5.5V8.25H2.75V5.5C2.75 4.04131 3.32946 2.64236 4.36091 1.61091C5.39236 0.579463 6.79131 0 8.25 0Z" fill="#FFC700"/>
<path d="M2.75 13.75V12.375C2.75 12.0103 2.89487 11.6606 3.15273 11.4027C3.41059 11.1449 3.76033 11 4.125 11C4.48967 11 4.83941 11.1449 5.09727 11.4027C5.35513 11.6606 5.5 12.0103 5.5 12.375V13.75H6.875C7.23967 13.75 7.58941 13.8949 7.84727 14.1527C8.10513 14.4106 8.25 14.7603 8.25 15.125C8.25 15.4897 8.10513 15.8394 7.84727 16.0973C7.58941 16.3551 7.23967 16.5 6.875 16.5H1.375C1.01033 16.5 0.660591 16.3551 0.402728 16.0973C0.144866 15.8394 0 15.4897 0 15.125C0 14.7603 0.144866 14.4106 0.402728 14.1527C0.660591 13.8949 1.01033 13.75 1.375 13.75H2.75ZM2.75 22V20.625C2.75 20.2603 2.89487 19.9106 3.15273 19.6527C3.41059 19.3949 3.76033 19.25 4.125 19.25C4.48967 19.25 4.83941 19.3949 5.09727 19.6527C5.35513 19.9106 5.5 20.2603 5.5 20.625V22H6.875C7.23967 22 7.58941 22.1449 7.84727 22.4027C8.10513 22.6606 8.25 23.0103 8.25 23.375C8.25 23.7397 8.10513 24.0894 7.84727 24.3473C7.58941 24.6051 7.23967 24.75 6.875 24.75H1.375C1.01033 24.75 0.660591 24.6051 0.402728 24.3473C0.144866 24.0894 0 23.7397 0 23.375C0 23.0103 0.144866 22.6606 0.402728 22.4027C0.660591 22.1449 1.01033 22 1.375 22H2.75ZM2.75 30.25V28.875C2.75 28.5103 2.89487 28.1606 3.15273 27.9027C3.41059 27.6449 3.76033 27.5 4.125 27.5C4.48967 27.5 4.83941 27.6449 5.09727 27.9027C5.35513 28.1606 5.5 28.5103 5.5 28.875V30.25H6.875C7.23967 30.25 7.58941 30.3949 7.84727 30.6527C8.10513 30.9106 8.25 31.2603 8.25 31.625C8.25 31.9897 8.10513 32.3394 7.84727 32.5973C7.58941 32.8551 7.23967 33 6.875 33H1.375C1.01033 33 0.660591 32.8551 0.402728 32.5973C0.144866 32.3394 0 31.9897 0 31.625C0 31.2603 0.144866 30.9106 0.402728 30.6527C0.660591 30.3949 1.01033 30.25 1.375 30.25H2.75Z" fill="#FFC700"/>
</svg>
