<svg width="18" height="18" viewBox="0 0 18 18" fill="none" xmlns="http://www.w3.org/2000/svg">
<path d="M17.8388 3.10001L14.9 0.161152C14.7967 0.0579613 14.6566 0 14.5106 0C14.3646 0 14.2245 0.0579613 14.1212 0.161152L5.30463 8.97772C5.20126 9.08096 5.14312 9.22102 5.143 9.36711V12.306C5.143 12.4521 5.20105 12.5923 5.30439 12.6956C5.40773 12.7989 5.54789 12.857 5.69403 12.857H8.63289C8.77898 12.8569 8.91904 12.7987 9.02228 12.6954L17.8388 3.8788C17.942 3.77548 18 3.63543 18 3.48941C18 3.34338 17.942 3.20333 17.8388 3.10001ZM8.40421 11.7549H6.24507V9.59579L12.3065 3.53441L14.4656 5.69355L8.40421 11.7549ZM15.2453 4.91383L13.0862 2.75469L14.5106 1.33027L16.6697 3.48941L15.2453 4.91383ZM17.2658 8.6324V16.7143C17.2658 17.0553 17.1303 17.3823 16.8892 17.6234C16.6481 17.8645 16.321 18 15.98 18H1.28575C0.944747 18 0.617712 17.8645 0.376587 17.6234C0.135463 17.3823 0 17.0553 0 16.7143V2.01998C0 1.67898 0.135463 1.35194 0.376587 1.11082C0.617712 0.869691 0.944747 0.734229 1.28575 0.734229H9.3676C9.51374 0.734229 9.6539 0.792284 9.75724 0.895623C9.86058 0.998962 9.91863 1.13912 9.91863 1.28526C9.91863 1.43141 9.86058 1.57157 9.75724 1.6749C9.6539 1.77824 9.51374 1.8363 9.3676 1.8363H1.28575C1.23703 1.8363 1.19031 1.85565 1.15587 1.8901C1.12142 1.92454 1.10207 1.97126 1.10207 2.01998V16.7143C1.10207 16.763 1.12142 16.8097 1.15587 16.8441C1.19031 16.8786 1.23703 16.8979 1.28575 16.8979H15.98C16.0287 16.8979 16.0755 16.8786 16.1099 16.8441C16.1443 16.8097 16.1637 16.763 16.1637 16.7143V8.6324C16.1637 8.48626 16.2218 8.3461 16.3251 8.24276C16.4284 8.13942 16.5686 8.08137 16.7147 8.08137C16.8609 8.08137 17.001 8.13942 17.1044 8.24276C17.2077 8.3461 17.2658 8.48626 17.2658 8.6324Z" fill="#8D2020"/>
</svg>
