<svg width="18" height="14" viewBox="0 0 18 14" fill="none" xmlns="http://www.w3.org/2000/svg">
<path d="M1.615 14C1.155 14 0.771 13.846 0.463 13.538C0.154333 13.2293 0 12.845 0 12.385V1.615C0 1.155 0.154333 0.771 0.463 0.463C0.771 0.154333 1.155 0 1.615 0H16.385C16.845 0 17.229 0.154333 17.537 0.463C17.8457 0.771 18 1.155 18 1.615V12.385C18 12.845 17.846 13.229 17.538 13.537C17.2293 13.8457 16.845 14 16.385 14H1.615ZM9 7.115L1 1.885V12.385C1 12.5643 1.05767 12.7117 1.173 12.827C1.28833 12.9423 1.43567 13 1.615 13H16.385C16.5643 13 16.7117 12.9423 16.827 12.827C16.9423 12.7117 17 12.5643 17 12.385V1.885L9 7.115ZM9 6L16.692 1H1.308L9 6ZM1 1.885V1V12.385C1 12.5643 1.05767 12.7117 1.173 12.827C1.28833 12.9423 1.43567 13 1.615 13H1V1.885Z" fill="white"/>
</svg>
