<svg width="13" height="17" viewBox="0 0 13 17" fill="none" xmlns="http://www.w3.org/2000/svg">
<path d="M12.125 15C12.125 15.6328 11.5977 16.125 11 16.125H2C1.50781 16.125 1.12109 15.8789 0.945312 15.4219C0.769531 15 0.875 14.5078 1.19141 14.1914L8.01172 7.6875C9.10156 6.63281 9.20703 4.875 8.22266 3.71484C7.69531 3.08203 6.95703 2.73047 6.14844 2.66016C5.33984 2.625 4.56641 2.90625 3.96875 3.46875L2.73828 4.59375C2.28125 5.01562 1.57812 4.98047 1.15625 4.52344C0.734375 4.06641 0.769531 3.36328 1.22656 2.94141L2.42188 1.81641C3.44141 0.867188 4.84766 0.339844 6.25391 0.445312C7.69531 0.515625 9.03125 1.18359 9.94531 2.27344C11.7031 4.34766 11.5273 7.44141 9.55859 9.30469L4.77734 13.875H11C11.5977 13.875 12.125 14.4023 12.125 15Z" fill="#742323"/>
</svg>
