<svg width="15" height="17" viewBox="0 0 15 17" fill="none" xmlns="http://www.w3.org/2000/svg">
<path d="M14.25 11.0273C14.25 11.625 13.7227 12.1523 13.125 12.1523H12V15C12 15.6328 11.4727 16.125 10.875 16.125C10.2422 16.125 9.75 15.6328 9.75 15V12.1523H1.875C1.48828 12.1523 1.10156 11.9414 0.890625 11.625C0.714844 11.3086 0.679688 10.8867 0.855469 10.5352L5.35547 1.04297C5.60156 0.480469 6.26953 0.234375 6.83203 0.515625C7.39453 0.761719 7.64062 1.42969 7.35938 1.99219L3.63281 9.90234H9.75V4.875C9.75 4.27734 10.2422 3.75 10.875 3.75C11.4727 3.75 12 4.27734 12 4.875V9.90234H13.125C13.7227 9.90234 14.25 10.3945 14.25 11.0273Z" fill="#742323"/>
</svg>
