<svg width="10" height="17" viewBox="0 0 10 17" fill="none" xmlns="http://www.w3.org/2000/svg">
<path d="M10 15C10 15.6328 9.47266 16.125 8.875 16.125H2.125C1.49219 16.125 1 15.6328 1 15C1 14.4023 1.49219 13.875 2.125 13.875H4.375V3.60938L2.72266 4.69922C2.23047 5.05078 1.52734 4.91016 1.17578 4.38281C0.824219 3.89062 0.964844 3.1875 1.49219 2.83594L4.86719 0.585938C5.21875 0.339844 5.64062 0.339844 6.02734 0.515625C6.37891 0.726562 6.625 1.11328 6.625 1.53516V13.9102H8.875C9.47266 13.875 10 14.4023 10 15Z" fill="#742323"/>
</svg>
