<svg width="13" height="17" viewBox="0 0 13 17" fill="none" xmlns="http://www.w3.org/2000/svg">
<path d="M12.125 11.3438C12.125 13.9805 9.94531 16.125 7.34375 16.125H4.49609C2.87891 16.125 1.4375 15.1055 0.945312 13.5586C0.734375 12.9609 1.05078 12.3281 1.64844 12.1523C2.24609 11.9414 2.87891 12.2578 3.08984 12.8555C3.30078 13.4883 3.86328 13.875 4.53125 13.875H7.34375C8.71484 13.875 9.875 12.75 9.875 11.3438C9.875 9.97266 8.71484 8.8125 7.34375 8.8125H3.6875C3.19531 8.8125 2.77344 8.53125 2.63281 8.10938C2.45703 7.6875 2.5625 7.19531 2.91406 6.87891L7.51953 2.625H2C1.36719 2.625 0.875 2.13281 0.875 1.5C0.875 0.902344 1.36719 0.375 2 0.375H10.4375C10.8945 0.375 11.3164 0.691406 11.457 1.11328C11.6328 1.53516 11.5273 2.02734 11.1758 2.34375L6.57031 6.5625H7.34375C9.94531 6.5625 12.125 8.70703 12.125 11.3438Z" fill="#742323"/>
</svg>
