<svg width="25" height="23" viewBox="0 0 25 23" fill="none" xmlns="http://www.w3.org/2000/svg">
<path d="M12.4988 0C19.4036 0 25 4.36667 25 9.7547C25 15.1415 19.4036 19.5082 12.5 19.5082C11.8126 19.5085 11.1259 19.4647 10.444 19.3771L5.19643 22.813C4.6 23.1288 4.38929 23.0943 4.63452 22.3208L5.69643 17.9374C2.26786 16.1974 0 13.1823 0 9.7547C0 4.36786 5.59524 0 12.5 0M19.5333 9.60573L21.2833 7.90863C21.3843 7.80365 21.4406 7.66353 21.4405 7.51778C21.4403 7.37204 21.3836 7.23206 21.2824 7.12732C21.1812 7.02257 21.0433 6.96126 20.8978 6.95627C20.7523 6.95129 20.6105 7.00304 20.5024 7.10061L18.2071 9.32447V7.48674C18.2071 7.33756 18.1479 7.19448 18.0426 7.08898C17.9372 6.98349 17.7943 6.92423 17.6452 6.92423C17.4962 6.92423 17.3533 6.98349 17.2479 7.08898C17.1425 7.19448 17.0833 7.33756 17.0833 7.48674V10.5341C17.0623 10.6211 17.0623 10.7118 17.0833 10.7987V12.5137C17.0833 12.6629 17.1425 12.8059 17.2479 12.9114C17.3533 13.0169 17.4962 13.0762 17.6452 13.0762C17.7943 13.0762 17.9372 13.0169 18.0426 12.9114C18.1479 12.8059 18.2071 12.6629 18.2071 12.5137V10.8893L18.7155 10.3971L20.4155 12.8199C20.4579 12.8804 20.5119 12.932 20.5742 12.9716C20.6365 13.0112 20.7061 13.0382 20.7788 13.0509C20.8515 13.0636 20.9261 13.0619 20.9981 13.0458C21.0702 13.0297 21.1384 12.9995 21.1988 12.957C21.2592 12.9145 21.3107 12.8605 21.3503 12.7981C21.3899 12.7357 21.4168 12.6661 21.4295 12.5933C21.4422 12.5205 21.4405 12.4459 21.4244 12.3737C21.4083 12.3016 21.3782 12.2333 21.3357 12.1728L19.5333 9.60573ZM16.0119 11.8987H14.2738V7.50462C14.2672 7.36007 14.2051 7.22364 14.1006 7.1237C13.996 7.02376 13.857 6.96799 13.7125 6.96799C13.5679 6.96799 13.429 7.02376 13.3244 7.1237C13.2199 7.22364 13.1578 7.36007 13.1512 7.50462V12.4612C13.1512 12.7711 13.4012 13.0237 13.7119 13.0237H16.0119C16.1609 13.0237 16.3039 12.9645 16.4092 12.859C16.5146 12.7535 16.5738 12.6104 16.5738 12.4612C16.5738 12.312 16.5146 12.169 16.4092 12.0635C16.3039 11.958 16.1609 11.8987 16.0119 11.8987ZM9.03929 10.5985L9.86786 8.56292L10.6274 10.5973L9.03929 10.5985ZM12.0429 11.1789L12.0452 11.1598C12.045 11.0181 11.9909 10.8818 11.894 10.7784L10.6488 7.44146C10.5966 7.28244 10.4972 7.14315 10.3638 7.04221C10.2304 6.94126 10.0694 6.88347 9.90238 6.87656C9.73409 6.87581 9.56957 6.92639 9.4307 7.02155C9.29184 7.11672 9.18521 7.25196 9.125 7.40928L7.14643 12.2658C7.09007 12.4039 7.09083 12.5588 7.14854 12.6963C7.20625 12.8339 7.31619 12.9429 7.45417 12.9993C7.59214 13.0557 7.74686 13.055 7.88427 12.9972C8.02169 12.9394 8.13055 12.8294 8.1869 12.6912L8.58214 11.7223H11.0464L11.4012 12.6757C11.4254 12.747 11.4636 12.8127 11.5136 12.8689C11.5637 12.9251 11.6244 12.9707 11.6924 13.0029C11.7603 13.0352 11.834 13.0535 11.9091 13.0567C11.9843 13.0599 12.0593 13.048 12.1297 13.0217C12.2002 12.9954 12.2646 12.9552 12.3192 12.9034C12.3739 12.8517 12.4176 12.7896 12.4478 12.7206C12.478 12.6517 12.4941 12.5774 12.495 12.5021C12.496 12.4269 12.4819 12.3522 12.4536 12.2825L12.0429 11.1789ZM8.0869 7.51058C8.0869 7.3616 8.02787 7.2187 7.92275 7.11324C7.81763 7.00778 7.67501 6.94838 7.52619 6.94806H3.6631C3.51407 6.94806 3.37115 7.00733 3.26577 7.11282C3.16039 7.21831 3.10119 7.36139 3.10119 7.51058C3.10119 7.65977 3.16039 7.80285 3.26577 7.90834C3.37115 8.01383 3.51407 8.0731 3.6631 8.0731H5.04405V12.5256C5.04405 12.6748 5.10325 12.8178 5.20863 12.9233C5.314 13.0288 5.45693 13.0881 5.60595 13.0881C5.75498 13.0881 5.8979 13.0288 6.00328 12.9233C6.10866 12.8178 6.16786 12.6748 6.16786 12.5256V8.0731H7.525C7.67403 8.0731 7.81695 8.01383 7.92233 7.90834C8.0277 7.80285 8.0869 7.65977 8.0869 7.51058Z" fill="black"/>
</svg>
