<svg width="25" height="21" viewBox="0 0 25 21" fill="none" xmlns="http://www.w3.org/2000/svg">
<path d="M21.7441 13.4515C23.2159 11.8872 23.9941 10.5 23.9941 10.5C23.9941 10.5 19.9032 3.20833 12.7441 3.20833C12.3603 3.20833 11.9852 3.2293 11.6191 3.26898C11.2341 3.31071 10.8591 3.37314 10.4941 3.45366M12.7441 7.375C13.1386 7.375 13.5173 7.43766 13.8691 7.55282C14.8281 7.86666 15.5882 8.5704 15.9271 9.45833C16.0515 9.78414 16.1191 10.1348 16.1191 10.5M2.61914 1.125L22.8691 19.875M12.7441 13.625C12.3497 13.625 11.971 13.5623 11.6191 13.4472C10.6602 13.1333 9.90012 12.4296 9.56118 11.5417C9.49723 11.3742 9.44828 11.2001 9.4158 11.0208M3.90953 7.375C3.56275 7.73386 3.25178 8.08585 2.97761 8.41667C2.00361 9.59191 1.49414 10.5 1.49414 10.5C1.49414 10.5 5.58505 17.7917 12.7441 17.7917C13.128 17.7917 13.5031 17.7707 13.8691 17.731" stroke="#B2B3B9" stroke-width="1.5" stroke-linecap="round" stroke-linejoin="round"/>
</svg>
