<svg width="23" height="18" viewBox="0 0 23 18" fill="none" xmlns="http://www.w3.org/2000/svg">
<path d="M5.85356 14.1372C7.86487 15.7788 9.55534 16.3044 11.4999 16.3044C13.1916 16.3044 15.3995 15.5688 17.5235 14.0016C19.0553 12.8712 20.3214 11.2236 21.3184 9.0456C20.2375 7.0872 18.9863 5.484 17.5661 4.23C15.5996 2.4924 13.4469 1.6956 11.4574 1.6956C9.39894 1.6956 7.02999 2.6532 5.00833 4.6644C3.55246 6.1116 2.44964 7.5684 1.6964 9.03C2.92113 11.1768 4.308 12.8772 5.85356 14.1372ZM11.4999 18C9.22989 18 7.20479 17.37 4.89793 15.4872C3.08442 14.0088 1.48941 12.006 0.109434 9.4872C0.0420447 9.36396 0.00460891 9.22536 0.000399142 9.08353C-0.00381063 8.94171 0.0253338 8.80096 0.085285 8.6736C0.929367 6.882 2.21389 5.1336 3.93425 3.4212C6.25376 1.1136 9.00795 0 11.4574 0C13.8068 0 16.3137 0.93 18.5688 2.9208C20.2352 4.392 21.6772 6.2832 22.8962 8.5872C23.0227 8.8248 23.0342 9.114 22.9273 9.3612C21.7911 12.0012 20.2881 14.0196 18.4182 15.3996C16.0309 17.16 13.5113 18 11.4988 18M11.7679 13.68C11.2091 13.68 10.6558 13.5652 10.1396 13.342C9.62338 13.1189 9.15432 12.7918 8.75921 12.3796C8.36411 11.9673 8.05069 11.4778 7.83687 10.9391C7.62304 10.4004 7.51298 9.82307 7.51298 9.24C7.51298 8.65693 7.62304 8.07957 7.83687 7.54089C8.05069 7.0022 8.36411 6.51274 8.75921 6.10045C9.15432 5.68815 9.62338 5.36111 10.1396 5.13798C10.6558 4.91484 11.2091 4.8 11.7679 4.8C12.8964 4.8 13.9786 5.26778 14.7766 6.10045C15.5745 6.93311 16.0228 8.06244 16.0228 9.24C16.0228 10.4176 15.5745 11.5469 14.7766 12.3796C13.9786 13.2122 12.8964 13.68 11.7679 13.68ZM11.7679 12C12.1152 12 12.4592 11.9286 12.7801 11.7899C13.101 11.6512 13.3925 11.4479 13.6381 11.1916C13.8838 10.9353 14.0786 10.6311 14.2115 10.2962C14.3444 9.96135 14.4128 9.60245 14.4128 9.24C14.4128 8.87755 14.3444 8.51865 14.2115 8.18379C14.0786 7.84894 13.8838 7.54468 13.6381 7.28839C13.3925 7.0321 13.101 6.8288 12.7801 6.69009C12.4592 6.55139 12.1152 6.48 11.7679 6.48C11.0664 6.48 10.3937 6.77078 9.89763 7.28839C9.40161 7.80599 9.12295 8.508 9.12295 9.24C9.12295 9.972 9.40161 10.674 9.89763 11.1916C10.3937 11.7092 11.0664 12 11.7679 12Z" fill="#B2B3B9"/>
</svg>
