<svg width="28" height="28" viewBox="0 0 28 28" fill="none" xmlns="http://www.w3.org/2000/svg">
<path d="M25.4404 11.7152H24.5007V11.6668H14.0007V16.3335H20.5941C19.6322 19.0501 17.0474 21.0002 14.0007 21.0002C10.1349 21.0002 7.00065 17.8659 7.00065 14.0002C7.00065 10.1344 10.1349 7.00016 14.0007 7.00016C15.7851 7.00016 17.4085 7.67333 18.6446 8.77291L21.9445 5.473C19.8608 3.53108 17.0737 2.3335 14.0007 2.3335C7.55773 2.3335 2.33398 7.55725 2.33398 14.0002C2.33398 20.4431 7.55773 25.6668 14.0007 25.6668C20.4436 25.6668 25.6673 20.4431 25.6673 14.0002C25.6673 13.2179 25.5868 12.4543 25.4404 11.7152Z" fill="#FFC107"/>
<path d="M3.67773 8.56991L7.51082 11.381C8.54798 8.81316 11.0598 7.00016 13.9992 7.00016C15.7837 7.00016 17.4071 7.67333 18.6432 8.77291L21.9431 5.473C19.8594 3.53108 17.0722 2.3335 13.9992 2.3335C9.51807 2.3335 5.6319 4.86341 3.67773 8.56991Z" fill="#FF3D00"/>
<path d="M13.9995 25.6666C17.013 25.6666 19.7512 24.5133 21.8214 22.6379L18.2106 19.5824C16.9999 20.5031 15.5205 21.0011 13.9995 20.9999C10.965 20.9999 8.38845 19.065 7.41778 16.3647L3.61328 19.296C5.54411 23.0742 9.46528 25.6666 13.9995 25.6666Z" fill="#4CAF50"/>
<path d="M25.4398 11.7149H24.5V11.6665H14V16.3332H20.5934C20.1333 17.6261 19.3045 18.7559 18.2093 19.5829L18.2111 19.5818L21.8219 22.6373C21.5664 22.8694 25.6667 19.8332 25.6667 13.9998C25.6667 13.2176 25.5862 12.454 25.4398 11.7149Z" fill="#1976D2"/>
</svg>
