<svg width="127" height="124" viewBox="0 0 127 124" fill="none" xmlns="http://www.w3.org/2000/svg">
<path fill-rule="evenodd" clip-rule="evenodd" d="M0.827393 13.1763C0.827393 9.91265 2.2207 6.78265 4.7008 4.47488C7.18091 2.16711 10.5447 0.870616 14.0521 0.870616H27.2767C29.6836 0.870616 31.945 1.46744 33.889 2.51958C35.8982 1.43671 38.1795 0.867801 40.5014 0.870616H53.726C58.5332 0.870616 62.7452 3.25793 65.0596 6.83274C66.4481 5.79906 68.0748 5.01149 69.8998 4.55618L82.6748 1.37515C84.3524 0.956405 86.1023 0.849282 87.8244 1.0599C89.5466 1.27052 91.2073 1.79476 92.7116 2.60267C94.216 3.41058 95.5346 4.48633 96.5922 5.7685C97.6497 7.05067 98.4254 8.51412 98.875 10.0753L126.25 105.168C126.7 106.729 126.815 108.357 126.589 109.96C126.362 111.562 125.799 113.107 124.931 114.507C124.063 115.907 122.907 117.134 121.529 118.118C120.151 119.102 118.578 119.824 116.9 120.242L104.125 123.423C102.448 123.842 100.698 123.949 98.9756 123.738C97.2534 123.528 95.5927 123.004 94.0883 122.196C92.584 121.388 91.2654 120.312 90.2078 119.03C89.1503 117.748 88.3746 116.284 87.925 114.723L66.9507 41.8671V111.622C66.9507 114.886 65.5574 118.016 63.0773 120.324C60.5972 122.631 57.2334 123.928 53.726 123.928H40.5014C38.1795 123.931 35.8982 123.362 33.889 122.279C31.8799 123.362 29.5986 123.931 27.2767 123.928H14.0521C10.5447 123.928 7.18091 122.631 4.7008 120.324C2.2207 118.016 0.827393 114.886 0.827393 111.622L0.827393 13.1763ZM14.0521 13.1763H27.2767V111.622H14.0521V13.1763ZM53.726 111.622H40.5014V13.1763H53.726V111.622ZM73.325 16.4435L86.0934 13.2625L113.482 108.355L100.707 111.536L73.325 16.4435Z" fill="#363333"/>
</svg>
