<svg width="19" height="19" viewBox="0 0 19 19" fill="none" xmlns="http://www.w3.org/2000/svg">
<path d="M18.7388 14.1636C18.5716 15.4339 17.9477 16.6 16.9837 17.4439C16.0196 18.2879 14.7813 18.7521 13.5 18.7498C6.05626 18.7498 8.4831e-06 12.6936 8.4831e-06 5.24981C-0.00228837 3.96852 0.461903 2.73021 1.30588 1.76615C2.14986 0.802093 3.31592 0.178223 4.58626 0.0110603C4.9075 -0.0281638 5.2328 0.0375558 5.51362 0.198409C5.79444 0.359262 6.0157 0.606621 6.14438 0.90356L8.12438 5.32387V5.33512C8.2229 5.56242 8.26359 5.81059 8.24282 6.05744C8.22204 6.3043 8.14044 6.54217 8.00532 6.74981C7.98845 6.77512 7.97063 6.79856 7.95188 6.822L6.00001 9.13575C6.7022 10.5626 8.1947 12.042 9.64032 12.7461L11.9222 10.8045C11.9446 10.7857 11.9681 10.7681 11.9925 10.752C12.2 10.6136 12.4387 10.5292 12.687 10.5062C12.9353 10.4833 13.1854 10.5227 13.4147 10.6207L13.4269 10.6264L17.8434 12.6054C18.1409 12.7337 18.3889 12.9547 18.5503 13.2356C18.7116 13.5164 18.7778 13.842 18.7388 14.1636Z" fill="white"/>
</svg>
