<svg width="29" height="29" viewBox="0 0 29 29" fill="none" xmlns="http://www.w3.org/2000/svg">
<path d="M28.219 25.806L21.7871 19.374C23.3356 17.3125 24.1716 14.8033 24.1688 12.225C24.1688 5.63926 18.8107 0.28125 12.225 0.28125C5.63926 0.28125 0.28125 5.63926 0.28125 12.225C0.28125 18.8107 5.63926 24.1688 12.225 24.1688C14.8033 24.1716 17.3125 23.3356 19.374 21.7871L25.806 28.219C26.1315 28.5101 26.5562 28.6654 26.9927 28.6532C27.4293 28.641 27.8446 28.4621 28.1533 28.1533C28.4621 27.8446 28.641 27.4293 28.6532 26.9927C28.6654 26.5562 28.5101 26.1315 28.219 25.806ZM3.69375 12.225C3.69375 10.5377 4.1941 8.88825 5.13152 7.48529C6.06895 6.08233 7.40135 4.98886 8.96023 4.34315C10.5191 3.69744 12.2345 3.5285 13.8894 3.85768C15.5443 4.18686 17.0644 4.99938 18.2575 6.19249C19.4506 7.38561 20.2631 8.90574 20.5923 10.5606C20.9215 12.2155 20.7526 13.9309 20.1068 15.4898C19.4611 17.0486 18.3677 18.381 16.9647 19.3185C15.5618 20.2559 13.9123 20.7562 12.225 20.7562C9.9632 20.7535 7.79482 19.8538 6.19549 18.2545C4.59616 16.6552 3.69646 14.4868 3.69375 12.225Z" fill="#8D2020"/>
</svg>
