<svg width="17" height="17" viewBox="0 0 17 17" fill="none" xmlns="http://www.w3.org/2000/svg">
<path d="M6.3648 3.55601C7.31503 1.852 7.78977 1 8.5 1C9.21023 1 9.68497 1.852 10.6352 3.55601L10.8812 3.99701C11.1512 4.48151 11.2862 4.72376 11.4962 4.88351C11.7062 5.04326 11.9687 5.10251 12.4937 5.22101L12.9706 5.32901C14.8156 5.74676 15.7373 5.95527 15.9571 6.66102C16.1761 7.36602 15.5476 8.10177 14.2899 9.57253L13.9644 9.95278C13.6074 10.3705 13.4281 10.5798 13.3479 10.8378C13.2676 11.0965 13.2946 11.3755 13.3486 11.9328L13.3981 12.4405C13.5879 14.4033 13.6831 15.3843 13.1086 15.82C12.5342 16.2565 11.6702 15.8583 9.94372 15.0633L9.49598 14.8578C9.00549 14.6313 8.76024 14.5188 8.5 14.5188C8.23976 14.5188 7.99451 14.6313 7.50402 14.8578L7.05703 15.0633C5.32982 15.8583 4.46584 16.2558 3.89211 15.8208C3.31687 15.3843 3.41212 14.4033 3.60187 12.4405L3.65136 11.9335C3.70536 11.3755 3.73236 11.0965 3.65136 10.8385C3.57187 10.5798 3.39262 10.3705 3.03563 9.95353L2.71014 9.57253C1.45242 8.10252 0.82393 7.36677 1.04293 6.66102C1.26267 5.95527 2.18515 5.74601 4.03011 5.32901L4.50709 5.22101C5.03133 5.10251 5.29308 5.04326 5.50382 4.88351C5.71382 4.72376 5.84881 4.48151 6.11881 3.99701L6.3648 3.55601Z" stroke="#7E7979" stroke-width="1.5"/>
</svg>
