<svg width="16" height="16" viewBox="0 0 16 16" fill="none" xmlns="http://www.w3.org/2000/svg">
<path d="M10.6666 1.16667V2H14.1666C14.2992 2 14.4264 2.05268 14.5201 2.14645C14.6139 2.24021 14.6666 2.36739 14.6666 2.5C14.6666 2.63261 14.6139 2.75979 14.5201 2.85355C14.4264 2.94732 14.2992 3 14.1666 3H1.83325C1.70064 3 1.57347 2.94732 1.4797 2.85355C1.38593 2.75979 1.33325 2.63261 1.33325 2.5C1.33325 2.36739 1.38593 2.24021 1.4797 2.14645C1.57347 2.05268 1.70064 2 1.83325 2H5.33325V1.16667C5.33325 0.522667 5.85592 0 6.49992 0H9.49992C10.1439 0 10.6666 0.522667 10.6666 1.16667ZM6.33325 1.16667V2H9.66658V1.16667C9.66658 1.12246 9.64903 1.08007 9.61777 1.04882C9.58651 1.01756 9.54412 1 9.49992 1H6.49992C6.45572 1 6.41332 1.01756 6.38207 1.04882C6.35081 1.08007 6.33325 1.12246 6.33325 1.16667ZM3.33125 4.11867C3.32555 4.05284 3.30686 3.9888 3.27626 3.93024C3.24566 3.87168 3.20376 3.81977 3.15298 3.7775C3.10219 3.73523 3.04353 3.70345 2.98039 3.68398C2.91725 3.66452 2.85088 3.65777 2.78511 3.66411C2.71935 3.67045 2.65549 3.68977 2.59723 3.72094C2.53897 3.75211 2.48747 3.79452 2.4457 3.84571C2.40393 3.89691 2.37273 3.95587 2.35388 4.0192C2.33504 4.08253 2.32893 4.14896 2.33592 4.21467L3.27725 13.9467C3.30541 14.2351 3.43992 14.5028 3.6546 14.6975C3.86928 14.8922 4.14875 15 4.43859 15H11.5613C11.8512 15 12.1307 14.8921 12.3454 14.6972C12.5601 14.5024 12.6946 14.2346 12.7226 13.946L13.6646 4.21467C13.6773 4.08259 13.6371 3.95086 13.5527 3.84847C13.4683 3.74607 13.3467 3.6814 13.2146 3.66867C13.0825 3.65594 12.9508 3.69619 12.8484 3.78059C12.746 3.86498 12.6813 3.98659 12.6686 4.11867L11.7273 13.8493C11.7233 13.8906 11.7041 13.9289 11.6734 13.9567C11.6427 13.9846 11.6027 14 11.5613 14H4.43859C4.39713 14 4.35716 13.9846 4.32647 13.9567C4.29578 13.9289 4.27656 13.8906 4.27259 13.8493L3.33125 4.11867Z" fill="#8D2020"/>
<path d="M6.13731 5.00071C6.20289 4.99683 6.26859 5.00591 6.33066 5.02744C6.39272 5.04896 6.44994 5.08251 6.49904 5.12616C6.54813 5.1698 6.58815 5.2227 6.61679 5.28182C6.64544 5.34094 6.66215 5.40512 6.66598 5.47071L6.99931 11.1374C7.00709 11.2699 6.96191 11.4001 6.8737 11.4993C6.7855 11.5985 6.6615 11.6586 6.52898 11.6664C6.39646 11.6742 6.26627 11.629 6.16707 11.5408C6.06786 11.4526 6.00776 11.3286 5.99998 11.196L5.66664 5.52937C5.66277 5.46379 5.67185 5.39809 5.69337 5.33603C5.7149 5.27396 5.74844 5.21674 5.79209 5.16765C5.83574 5.11855 5.88864 5.07854 5.94776 5.04989C6.00688 5.02125 6.07106 5.00453 6.13664 5.00071H6.13731ZM10.3326 5.52937C10.3404 5.39685 10.2952 5.26667 10.207 5.16746C10.1188 5.06826 9.99483 5.00815 9.86231 5.00037C9.72979 4.99259 9.59961 5.03778 9.5004 5.12598C9.40119 5.21418 9.34109 5.33819 9.33331 5.47071L8.99998 11.1374C8.9922 11.2698 9.03734 11.3999 9.12549 11.499C9.21363 11.5982 9.33755 11.6583 9.46998 11.666C9.60241 11.6738 9.73251 11.6287 9.83165 11.5405C9.93079 11.4524 9.99086 11.3285 9.99864 11.196L10.3326 5.52937Z" fill="#8D2020"/>
</svg>
