<svg width="104" height="104" viewBox="0 0 104 104" fill="none" xmlns="http://www.w3.org/2000/svg">
<path d="M52 32.2778V54.5M26.0667 7.21111L7.21111 26.0667L7.18889 26.0833C5.28333 27.9889 4.32222 28.95 3.63333 30.0667C3.02778 31.0611 2.57778 32.1444 2.30556 33.2778C2 34.5556 2 35.9167 2 38.6333V65.3667C2 68.0833 2 69.4389 2.30556 70.7222C2.57874 71.8559 3.02869 72.9396 3.63889 73.9333C4.32778 75.05 5.28889 76.0167 7.21111 77.9333L26.0667 96.7944C27.9889 98.7167 28.9444 99.6722 30.0667 100.361C31.0611 100.972 32.1444 101.417 33.2778 101.694C34.5556 102 35.9111 102 38.6222 102H65.3778C68.0833 102 69.4444 102 70.7222 101.694C71.8556 101.417 72.9444 100.972 73.9333 100.361C75.0556 99.6722 76.0167 98.7167 77.9333 96.7944L96.7944 77.9389C98.7167 76.0167 99.6778 75.05 100.361 73.9333C100.972 72.9333 101.417 71.8556 101.694 70.7222C102 69.4444 102 68.0833 102 65.3667V38.6333C102 35.9167 102 34.5611 101.689 33.2778C101.417 32.1444 100.969 31.0608 100.361 30.0667C99.6778 28.9444 98.7167 27.9889 96.7944 26.0667L77.9444 7.21111C76.0222 5.28889 75.0611 4.32222 73.9444 3.63889C72.949 3.02807 71.8634 2.5781 70.7278 2.30556C69.4444 2 68.0833 2 65.3611 2H38.6333C35.9111 2 34.5556 2 33.2778 2.30556C32.1446 2.58048 31.0613 3.03032 30.0667 3.63889C28.9556 4.31667 28.0111 5.26667 26.1222 7.15556L26.0667 7.21111ZM52.2778 71.1667V71.7222H51.7222V71.1667H52.2778Z" stroke="#8D2020" stroke-width="4" stroke-linecap="round" stroke-linejoin="round"/>
</svg>
